<?xml version="1.0" standalone="no"?>
<!DOCTYPE svg PUBLIC "-//W3C//DTD SVG 1.1//EN" "http://www.w3.org/Graphics/SVG/1.1/DTD/svg11.dtd">
<svg xmlns="http://www.w3.org/2000/svg" viewBox="0 0 1440 320" width="1440" height="320"><path fill="#44a049" fill-opacity="1" d="M0,32L26.7,37.3C53.3,43,107,53,160,90.7C213.3,128,267,192,320,208C373.3,224,427,192,480,176C533.3,160,587,160,640,176C693.3,192,747,224,800,202.7C853.3,181,907,107,960,85.3C1013.3,64,1067,96,1120,122.7C1173.3,149,1227,171,1280,149.3C1333.3,128,1387,64,1413,32L1440,0L1440,320L1413.3,320C1386.7,320,1333,320,1280,320C1226.7,320,1173,320,1120,320C1066.7,320,1013,320,960,320C906.7,320,853,320,800,320C746.7,320,693,320,640,320C586.7,320,533,320,480,320C426.7,320,373,320,320,320C266.7,320,213,320,160,320C106.7,320,53,320,27,320L0,320Z"/></svg>