<?xml version="1.0" standalone="no"?>
<!DOCTYPE svg PUBLIC "-//W3C//DTD SVG 1.1//EN" "http://www.w3.org/Graphics/SVG/1.1/DTD/svg11.dtd">
<svg xmlns="http://www.w3.org/2000/svg" viewBox="0 0 1440 320" width="1440" height="320"><path fill="#44a049" fill-opacity="1" d="M0,128L26.7,122.7C53.3,117,107,107,160,106.7C213.3,107,267,117,320,122.7C373.3,128,427,128,480,128C533.3,128,587,128,640,112C693.3,96,747,64,800,74.7C853.3,85,907,139,960,165.3C1013.3,192,1067,192,1120,170.7C1173.3,149,1227,107,1280,101.3C1333.3,96,1387,128,1413,144L1440,160L1440,0L1413.3,0C1386.7,0,1333,0,1280,0C1226.7,0,1173,0,1120,0C1066.7,0,1013,0,960,0C906.7,0,853,0,800,0C746.7,0,693,0,640,0C586.7,0,533,0,480,0C426.7,0,373,0,320,0C266.7,0,213,0,160,0C106.7,0,53,0,27,0L0,0Z"/></svg>